<?xml version="1.0" standalone="no"?>
<!DOCTYPE svg PUBLIC "-//W3C//DTD SVG 20010904//EN"
 "http://www.w3.org/TR/2001/REC-SVG-20010904/DTD/svg10.dtd">
<svg version="1.0" xmlns="http://www.w3.org/2000/svg"
 width="507.000000pt" height="507.000000pt" viewBox="0 0 507.000000 507.000000"
 preserveAspectRatio="xMidYMid meet">
<metadata>
Created by potrace 1.14, written by Peter Selinger 2001-2017
</metadata>
<g transform="translate(0.000000,507.000000) scale(0.100000,-0.100000)"
fill="#000000" stroke="none">
<path d="M1459 4996 c-3 -3 -27 -8 -55 -11 -28 -3 -59 -7 -70 -9 -63 -12 -104
-17 -107 -14 -2 1 -11 -3 -20 -11 -10 -7 -17 -11 -17 -8 0 3 -15 1 -32 -4 -18
-6 -41 -12 -51 -14 -25 -6 -134 -45 -185 -66 -23 -10 -43 -18 -45 -17 -1 0
-28 -15 -59 -36 -31 -20 -60 -36 -63 -36 -3 0 -15 -9 -27 -20 -12 -11 -28 -20
-35 -20 -7 0 -13 -4 -13 -10 0 -5 -4 -10 -10 -10 -5 0 -18 -6 -27 -14 -88 -72
-108 -90 -106 -97 2 -5 -1 -8 -6 -6 -20 5 -204 -203 -240 -271 -7 -13 -21 -32
-32 -43 -10 -10 -21 -30 -25 -44 -3 -14 -10 -25 -14 -25 -8 0 -25 -41 -21 -49
2 -2 -1 -7 -6 -10 -19 -14 -89 -191 -75 -191 4 0 2 -4 -4 -8 -13 -8 -56 -170
-49 -182 3 -5 1 -10 -4 -12 -6 -1 -12 -23 -15 -48 -3 -25 -7 -55 -10 -67 -3
-13 -8 -60 -11 -105 -3 -46 -8 -91 -11 -100 -3 -10 0 -18 7 -18 8 0 8 -4 2
-12 -6 -8 -9 -331 -7 -868 2 -802 5 -989 19 -1050 3 -14 8 -41 10 -60 12 -96
52 -282 72 -330 3 -8 7 -20 9 -27 1 -7 14 -38 28 -69 14 -31 26 -63 26 -70 0
-8 3 -14 8 -14 4 0 18 -23 32 -51 13 -28 30 -53 37 -56 7 -3 11 -9 8 -13 -3
-5 2 -15 10 -23 8 -9 15 -19 15 -24 0 -5 13 -23 30 -41 16 -18 30 -36 30 -40
0 -7 7 -14 123 -132 46 -47 102 -100 125 -118 46 -37 198 -142 206 -142 3 0
29 -14 58 -31 29 -17 54 -31 56 -30 1 1 16 -6 32 -14 16 -8 31 -15 32 -14 2 0
16 -4 31 -10 15 -6 40 -14 55 -17 15 -4 32 -10 37 -15 6 -4 24 -10 40 -13 17
-2 32 -5 35 -6 3 -1 10 -3 15 -5 6 -1 13 -3 18 -5 4 -1 16 -4 27 -5 11 -1 21
-3 23 -5 5 -4 46 -10 97 -14 30 -3 55 -5 55 -6 0 -15 2010 -22 2155 -8 120 12
145 15 145 18 0 1 9 3 20 5 11 1 38 6 60 10 22 3 46 7 53 7 6 1 12 5 12 9 0 4
7 6 17 5 27 -4 210 61 311 110 202 98 298 172 487 376 14 15 25 31 25 37 0 5
6 14 13 18 8 4 26 27 42 51 15 23 32 42 37 42 5 0 7 4 4 8 -2 4 11 32 30 62
18 30 34 61 34 68 0 6 4 12 10 12 5 0 9 3 8 7 -1 5 8 31 21 58 23 53 90 243
97 279 5 29 18 89 20 99 1 4 3 8 4 10 3 3 7 29 14 92 2 28 5 50 6 50 2 0 4 20
16 140 10 108 11 1817 1 1860 -4 17 -9 48 -12 70 -2 22 -7 51 -9 65 -3 14 -8
36 -11 50 -3 14 -8 36 -10 50 -3 14 -8 39 -11 55 -4 17 -7 36 -7 43 0 6 -4 12
-9 12 -5 0 -6 5 -3 10 6 9 -13 79 -25 90 -3 3 -6 16 -8 29 -3 33 -82 211 -93
211 -5 0 -8 4 -6 9 3 11 -46 90 -56 91 -5 0 -5 5 -2 10 3 6 -1 13 -9 16 -9 3
-13 10 -10 15 3 5 -2 12 -10 15 -9 3 -16 11 -16 17 0 13 -2 15 -137 152 -98
100 -158 155 -168 155 -3 0 -15 8 -26 19 -25 23 -200 127 -207 123 -3 -2 -8 0
-11 5 -12 19 -269 115 -283 107 -4 -3 -8 0 -8 6 0 6 -5 8 -10 5 -6 -4 -16 -2
-23 3 -7 5 -19 10 -27 10 -8 0 -26 3 -40 6 -36 9 -81 16 -123 20 -21 2 -40 6
-43 9 -3 3 -166 6 -362 7 l-357 1 0 -836 c0 -459 3 -835 7 -835 4 0 5 -6 3
-12 -3 -7 -6 -42 -8 -78 l-3 -65 235 2 c130 1 257 2 283 2 l47 1 3 315 c2 173
-1 315 -5 315 -4 0 -4 6 0 14 10 18 4 118 -7 111 -4 -3 -13 2 -20 10 -7 8 -17
15 -23 15 -11 0 -50 40 -61 61 -3 8 -14 28 -25 44 -24 40 -23 150 2 188 10 15
15 27 12 27 -3 0 16 21 42 46 65 62 96 75 178 74 68 0 85 -2 85 -10 0 -3 15
-11 33 -18 71 -25 152 -152 140 -217 -2 -11 -5 -34 -7 -52 -4 -32 -53 -113
-90 -148 -22 -20 -22 -24 -21 -392 0 -204 3 -375 7 -378 7 -8 361 -7 404 1 16
3 36 11 44 19 22 19 99 13 115 -9 11 -14 13 -164 14 -743 l1 -725 -32 -44
c-19 -27 -29 -50 -25 -63 4 -16 -12 -36 -70 -88 -42 -38 -88 -79 -103 -93 -15
-14 -65 -59 -110 -100 -106 -96 -110 -99 -110 -111 0 -6 -4 -8 -8 -5 -5 3 -15
-3 -23 -12 -9 -9 -48 -46 -87 -81 -40 -35 -88 -78 -106 -95 -18 -17 -59 -53
-90 -81 -31 -27 -76 -68 -100 -90 -24 -22 -83 -76 -131 -120 -49 -44 -107 -97
-129 -118 -76 -72 -178 -162 -192 -170 -8 -5 -12 -13 -8 -18 3 -5 1 -8 -4 -7
-5 2 -25 -13 -44 -32 -45 -46 -108 -75 -145 -65 -15 3 -29 5 -30 3 -2 -2 -13
12 -26 31 -40 59 -30 129 27 170 10 8 33 28 51 45 30 29 133 122 248 226 27
25 65 59 83 75 18 17 65 59 105 95 40 36 96 88 126 117 29 29 53 50 53 48 0
-3 9 3 19 12 11 9 18 20 15 25 -3 4 0 8 6 8 6 0 24 13 40 30 16 16 31 30 34
30 3 0 40 33 83 74 82 78 115 108 239 221 43 39 97 89 121 112 23 23 43 40 43
38 0 -2 12 8 27 23 15 15 27 30 26 34 -5 13 -4 63 0 90 2 17 0 28 -7 28 -7 0
-8 3 -1 8 13 8 14 112 2 112 -4 0 -5 5 -1 12 11 17 12 68 3 74 -4 2 -4 18 1
34 5 19 5 28 -1 25 -5 -4 -6 3 0 17 4 13 5 32 1 43 -4 11 -5 23 -3 28 8 13 9
107 2 107 -4 0 -4 14 1 30 5 17 5 30 0 30 -4 0 -4 16 0 35 5 21 4 35 -1 35 -6
0 -4 10 2 23 7 12 11 24 10 27 -2 3 -7 13 -12 23 -6 11 -6 17 0 17 7 0 7 8 2
23 -5 13 -6 29 -1 36 4 7 4 28 0 47 -4 19 -5 34 -1 34 8 0 6 113 -3 128 -4 7
-2 12 5 12 8 0 8 4 -1 15 -7 8 -9 15 -4 15 7 0 9 42 5 92 -1 4 -706 7 -1568 5
l-1568 -2 0 -580 c-1 -319 1 -588 3 -597 2 -10 10 -18 17 -18 6 0 32 -19 57
-42 106 -99 202 -183 217 -190 9 -4 12 -7 7 -7 -5 -1 4 -11 20 -23 15 -13 40
-34 55 -48 15 -14 62 -56 105 -95 42 -38 96 -88 119 -110 23 -22 75 -69 115
-105 40 -36 87 -78 105 -95 18 -16 67 -61 109 -100 42 -38 103 -95 135 -125
32 -30 91 -84 131 -120 39 -36 92 -84 116 -107 24 -24 44 -40 44 -37 0 4 15
-13 34 -36 35 -44 38 -69 15 -112 -5 -10 -7 -18 -4 -18 3 0 -4 -9 -15 -20 -11
-11 -24 -20 -30 -20 -5 0 -10 -5 -10 -11 0 -5 -4 -8 -9 -4 -5 3 -12 1 -16 -5
-4 -6 -13 -7 -23 -1 -18 10 -24 11 -45 11 -8 0 -48 34 -89 75 -42 41 -78 75
-81 75 -3 0 -27 21 -55 48 -83 79 -173 157 -190 164 -10 4 -13 7 -8 7 5 1 -14
22 -42 49 -28 26 -76 71 -107 100 -31 28 -61 52 -66 52 -5 0 -9 7 -9 15 0 8
-4 15 -9 15 -5 0 -38 28 -74 63 -75 72 -153 144 -227 207 -29 25 -73 64 -96
87 -24 24 -45 43 -47 43 -2 0 -35 30 -73 66 -38 37 -94 91 -125 120 -31 30
-60 54 -64 54 -4 0 -31 24 -60 54 -36 37 -56 65 -59 88 -3 18 -5 351 -3 740 2
655 3 707 20 725 9 11 15 22 13 24 -14 14 74 6 111 -11 40 -18 67 -20 238 -20
l193 0 0 389 c0 385 -1 390 -22 409 -44 40 -73 89 -78 132 -2 14 -7 28 -13 32
-6 5 -6 8 2 8 6 0 10 8 9 18 -7 43 32 123 82 166 7 6 18 16 25 21 46 40 140
59 212 43 58 -12 165 -103 165 -140 0 -10 4 -18 8 -18 9 0 9 -1 12 -70 1 -39
-3 -70 -10 -90 -1 -3 -2 -8 -1 -12 0 -5 -4 -8 -9 -8 -6 0 -10 -7 -10 -15 0
-19 -63 -81 -90 -90 -11 -4 -18 -10 -15 -15 3 -4 -2 -7 -11 -6 -9 0 -20 -9
-25 -21 -5 -15 -5 -23 2 -23 6 0 7 -5 3 -12 -10 -16 -11 -319 -1 -325 4 -2 5
-9 1 -14 -9 -16 -10 -129 -1 -129 5 0 5 -5 2 -11 -10 -14 -14 -59 -6 -59 4 0
7 -9 7 -20 0 -11 -3 -20 -6 -20 -3 0 -5 -25 -5 -55 0 -45 4 -56 18 -61 26 -8
612 -8 625 0 8 4 8 15 2 31 -6 16 -6 25 0 25 5 0 7 7 3 16 -7 18 -10 353 -4
360 8 7 8 44 1 44 -9 0 -6 32 4 48 4 6 3 12 -1 12 -9 0 -8 74 2 90 3 6 2 10
-3 10 -10 0 -9 30 1 47 4 6 4 14 0 16 -9 6 -9 124 -1 133 4 3 3 18 -1 32 -5
23 -6 602 -1 610 3 3 3 40 0 47 -5 13 -3 76 3 81 3 4 2 14 -3 24 -5 10 -7 20
-4 23 5 4 6 55 3 150 0 16 -24 17 -348 17 -191 0 -350 -2 -352 -4z m289 -2430
c16 -8 32 -12 36 -9 3 4 6 1 6 -5 0 -6 10 -14 23 -18 48 -15 134 -91 179 -159
23 -36 45 -99 36 -108 -2 -2 2 -10 9 -18 9 -11 12 -100 13 -324 1 -171 1 -320
1 -332 0 -13 4 -23 9 -23 6 0 10 -6 11 -12 0 -7 14 -24 31 -38 l32 -24 390 -2
c336 -1 395 1 418 15 49 27 54 54 53 248 -1 98 2 185 6 194 5 9 5 19 2 23 -8
8 -11 237 -4 251 3 6 7 19 8 30 2 11 12 39 23 62 11 24 20 48 20 53 0 6 5 8
10 5 6 -3 10 -2 10 4 0 12 94 111 105 111 4 0 16 9 26 21 9 11 20 20 23 20 3
0 32 12 63 26 109 49 194 28 211 -52 6 -31 4 -47 -9 -72 -10 -17 -15 -34 -12
-37 4 -3 -1 -6 -9 -6 -9 0 -21 -7 -28 -15 -7 -9 -15 -13 -18 -10 -3 3 -14 -2
-24 -12 -10 -9 -18 -13 -18 -9 0 8 -47 -21 -78 -48 -25 -22 -49 -63 -60 -99
-3 -12 -7 -146 -8 -297 -4 -447 -8 -463 -143 -579 -13 -12 -28 -21 -32 -21 -4
0 -20 -5 -36 -12 -15 -6 -40 -12 -55 -12 -15 -1 -29 -4 -32 -6 -7 -8 -828 -2
-856 5 -14 4 -36 8 -48 9 -13 2 -28 9 -33 17 -5 8 -9 11 -9 7 0 -21 -113 89
-134 131 -41 80 -45 112 -44 436 0 172 -3 319 -8 327 -5 7 -9 19 -11 27 -1 8
-8 18 -15 22 -7 5 -9 9 -4 9 18 0 -29 36 -104 80 -100 59 -116 76 -120 130 -5
54 9 80 55 106 26 15 106 9 143 -10z"/>
<path d="M2393 4090 l0 -910 98 -1 c55 -1 106 -1 114 -1 8 0 33 0 54 1 l39 1
-2 255 c0 140 3 255 7 255 5 0 5 5 1 12 -6 10 -10 1137 -4 1163 1 6 2 12 1 15
-6 15 -5 90 1 90 4 0 5 7 2 15 -5 12 -32 15 -159 15 l-152 0 0 -910z"/>
</g>
</svg>
